<?xml version="1.0" encoding="UTF-8" standalone="no"?>
<!DOCTYPE svg PUBLIC "-//W3C//DTD SVG 1.0//EN"
 "http://www.w3.org/TR/2001/REC-SVG-20010904/DTD/svg10.dtd" [
 <!ATTLIST svg xmlns:xlink CDATA #FIXED "http://www.w3.org/1999/xlink">
]>
<!-- Generated by Graphviz version 2.20.2 (Tue Mar &#160;2 21:46:26 UTC 2010)
     For user: (flindt) Poul Flindt,,, -->
<!-- Title: _anonymous_0 Pages: 1 -->
<svg width="155pt" height="270pt"
 viewBox="0.00 0.00 155.00 270.00" xmlns="http://www.w3.org/2000/svg" xmlns:xlink="http://www.w3.org/1999/xlink">
<g id="graph0" class="graph" transform="scale(1 1) rotate(0) translate(4 266)">
<title>_anonymous_0</title>
<polygon style="fill:white;stroke:white;" points="-4,4 -4,-266 151,-266 151,4 -4,4"/>
<!-- ISP1 -->
<g id="node1" class="node"><title>ISP1</title>
<ellipse style="fill:none;stroke:black;" cx="69" cy="-100" rx="32.8565" ry="18"/>
<text text-anchor="middle" x="69" y="-95.9" style="font-family:Times New Roman;font-size:14.00;">ISP1</text>
</g>
<!-- the internet -->
<g id="node3" class="node"><title>the internet</title>
<ellipse style="fill:none;stroke:black;" cx="69" cy="-28" rx="68.9883" ry="18"/>
<text text-anchor="middle" x="69" y="-23.9" style="font-family:Times New Roman;font-size:14.00;">the internet</text>
</g>
<!-- ISP1&#45;&gt;the internet -->
<g id="edge2" class="edge"><title>ISP1&#45;&gt;the internet</title>
<path style="fill:none;stroke:black;" d="M93,-87C109,-78 128,-64 138,-46 145,-31 149,-21 138,-10 129,-2 92,3 76,-2"/>
<polygon style="fill:black;stroke:black;" points="73.5962,0.545981 69,-9 78.546,-4.40379 73.5962,0.545981"/>
</g>
<!-- localPC1 -->
<g id="node4" class="node"><title>localPC1</title>
<ellipse style="fill:none;stroke:black;" cx="69" cy="-244" rx="52.1162" ry="18"/>
<text text-anchor="middle" x="69" y="-239.9" style="font-family:Times New Roman;font-size:14.00;">localPC1</text>
</g>
<!-- localRouter -->
<g id="node6" class="node"><title>localRouter</title>
<ellipse style="fill:none;stroke:black;" cx="69" cy="-172" rx="64.1231" ry="18"/>
<text text-anchor="middle" x="69" y="-167.9" style="font-family:Times New Roman;font-size:14.00;">localRouter</text>
</g>
<!-- localPC1&#45;&gt;localRouter -->
<g id="edge4" class="edge"><title>localPC1&#45;&gt;localRouter</title>
<path style="fill:none;stroke:black;" d="M69,-226C69,-218 69,-209 69,-200"/>
<polygon style="fill:black;stroke:black;" points="72.5001,-200 69,-190 65.5001,-200 72.5001,-200"/>
<text text-anchor="middle" x="73" y="-194.9" style="font-family:Times New Roman;font-size:14.00;">192.168.1.1</text>
<text text-anchor="middle" x="65" y="-212.9" style="font-family:Times New Roman;font-size:14.00;">192.168.1.19</text>
</g>
<!-- localRouter&#45;&gt;ISP1 -->
<g id="edge6" class="edge"><title>localRouter&#45;&gt;ISP1</title>
<path style="fill:none;stroke:black;" d="M69,-154C69,-146 69,-137 69,-128"/>
<polygon style="fill:black;stroke:black;" points="72.5001,-128 69,-118 65.5001,-128 72.5001,-128"/>
<text text-anchor="middle" x="73" y="-122.9" style="font-family:Times New Roman;font-size:14.00;">80.17.33.33</text>
<text text-anchor="middle" x="65" y="-140.9" style="font-family:Times New Roman;font-size:14.00;">80.17.33.1</text>
</g>
</g>
</svg>
